<?xml version="1.0" encoding="UTF-8" standalone="no"?>
<svg
   xmlns:dc="http://purl.org/dc/elements/1.1/"
   xmlns:cc="http://creativecommons.org/ns#"
   xmlns:rdf="http://www.w3.org/1999/02/22-rdf-syntax-ns#"
   xmlns:svg="http://www.w3.org/2000/svg"
   xmlns="http://www.w3.org/2000/svg"
   xmlns:sodipodi="http://sodipodi.sourceforge.net/DTD/sodipodi-0.dtd"
   xmlns:inkscape="http://www.inkscape.org/namespaces/inkscape"
   width="128.0px"
   height="128.0px"
   viewBox="0 0 128.0 128.0"
   version="1.1"
   id="SVGRoot"
   sodipodi:docname="bitch ass.svg"
   inkscape:version="1.0.1 (3bc2e813f5, 2020-09-07)"
   inkscape:export-filename="D:\Pictures\Inkscape\Logo stuff\bitch ass.png"
   inkscape:export-xdpi="1536"
   inkscape:export-ydpi="1536">
  <title
     id="title215">aaaaaaaaaaaaaaaaaaaaaaaaaaaa</title>
  <defs
     id="defs30">
    <inkscape:path-effect
       effect="mirror_symmetry"
       start_point="37.80594,21.421624"
       end_point="37.80594,38.996304"
       center_point="37.80594,30.208964"
       id="path-effect88"
       is_visible="true"
       lpeversion="1"
       mode="vertical"
       discard_orig_path="false"
       fuse_paths="false"
       oposite_fuse="true"
       split_items="true" />
    <inkscape:path-effect
       effect="mirror_symmetry"
       start_point="64,76"
       end_point="64,82.310372"
       center_point="64,79.155186"
       id="path-effect55"
       is_visible="true"
       lpeversion="1"
       mode="free"
       discard_orig_path="false"
       fuse_paths="false"
       oposite_fuse="false"
       split_items="false" />
    <inkscape:path-effect
       center_point="48.476607,53.877679"
       end_point="48.476607,59.755358"
       start_point="48.476607,48"
       effect="mirror_symmetry"
       id="path-effect34"
       is_visible="true"
       lpeversion="1"
       mode="vertical"
       discard_orig_path="false"
       fuse_paths="false"
       oposite_fuse="false"
       split_items="false" />
    <inkscape:path-effect
       effect="mirror_symmetry"
       start_point="64,8.4444444"
       end_point="64,96"
       center_point="64,52.222222"
       id="path-effect78"
       is_visible="true"
       lpeversion="1"
       mode="free"
       discard_orig_path="false"
       fuse_paths="true"
       oposite_fuse="false"
       split_items="false" />
  </defs>
  <sodipodi:namedview
     id="base"
     pagecolor="#000000"
     bordercolor="#666666"
     borderopacity="1.0"
     inkscape:pageopacity="0"
     inkscape:pageshadow="2"
     inkscape:zoom="5.6568543"
     inkscape:cx="43.896367"
     inkscape:cy="57.054799"
     inkscape:document-units="px"
     inkscape:current-layer="layer1"
     inkscape:document-rotation="0"
     showgrid="true"
     inkscape:window-width="1920"
     inkscape:window-height="1017"
     inkscape:window-x="-8"
     inkscape:window-y="-8"
     inkscape:window-maximized="1"
     inkscape:snap-grids="true">
    <inkscape:grid
       type="xygrid"
       id="grid39"
       empspacing="4"
       visible="true"
       snapvisiblegridlinesonly="true"
       enabled="false" />
  </sodipodi:namedview>
  <metadata
     id="metadata33">
    <rdf:RDF>
      <cc:Work
         rdf:about="">
        <dc:format>image/svg+xml</dc:format>
        <dc:type
           rdf:resource="http://purl.org/dc/dcmitype/StillImage" />
        <dc:title>aaaaaaaaaaaaaaaaaaaaaaaaaaaa</dc:title>
      </cc:Work>
    </rdf:RDF>
    <rdf:RDF>
      <cc:Work
         rdf:about="">
        <dc:title />
      </cc:Work>
    </rdf:RDF>
  </metadata>
  <g
     inkscape:label="Layer 1"
     inkscape:groupmode="layer"
     id="layer1">
    <path
       style="fill:none;stroke:#ffffff;stroke-width:2.0044;stroke-linecap:butt;stroke-linejoin:miter;stroke-miterlimit:4;stroke-dasharray:none;stroke-opacity:1"
       d="M 64,92 C 16,92 16,60 16,60 c 0,0 0,-76 16,-44 8,16 16,16 16,16 0,0 6.816353,-3.935423 16,-4.100274 C 73.183647,28.064577 80,32 80,32 c 0,0 8,0 16,-16 16,-32 16,44 16,44 0,0 0,32 -48,32 z"
       id="path52"
       sodipodi:nodetypes="ccscc"
       inkscape:original-d="M 64,92 C 16,92 16,60 16,60 c 0,0 0,-76 16,-44 8,16 16,16 16,16 0,0 16,-9.237604 32,0"
       inkscape:path-effect="#path-effect78"
       transform="matrix(0.88888889,0,0,1,7.111111,13.930818)" />
    <path
       style="fill:none;stroke:#ffffff;stroke-width:1.88976;stroke-linecap:butt;stroke-linejoin:miter;stroke-miterlimit:4;stroke-dasharray:none;stroke-opacity:1"
       d="m 36,64.582468 c 0,0 -5.333333,0 -3.555556,4 5.040217,11.340487 24.888889,8 21.333334,4 -7.111111,-8 -17.777778,-8 -17.777778,-8 z"
       id="path143"
       sodipodi:nodetypes="cscc" />
    <path
       style="fill:none;stroke:#ffffff;stroke-width:1.88976;stroke-linecap:butt;stroke-linejoin:miter;stroke-miterlimit:4;stroke-dasharray:none;stroke-opacity:1"
       d="M 52.252538,82.34835 C 56,84 63,82 64,80 v -4 m 11.747462,6.34835 C 72,84 65,82 64,80 v -4"
       id="path38"
       sodipodi:nodetypes="ccc"
       inkscape:path-effect="#path-effect55"
       inkscape:original-d="M 52.252538,82.34835 C 56,84 63,82 64,80 v -4"
       transform="translate(-2.0000002e-8,13.930818)" />
    <path
       style="fill:none;stroke:#ffffff;stroke-width:1.88976;stroke-linecap:butt;stroke-linejoin:miter;stroke-miterlimit:4;stroke-dasharray:none;stroke-opacity:1"
       d="m 64,89.930818 c -4,-2 -4,-3 -4,-3 0,0 2,-1 4,-1"
       id="path59" />
    <path
       style="fill:none;stroke:#ffffff;stroke-width:1.88976;stroke-linecap:butt;stroke-linejoin:miter;stroke-miterlimit:4;stroke-dasharray:none;stroke-opacity:1"
       d="m 64,89.930818 c 4,-2 4,-3 4,-3 0,0 -2,-1 -4,-1"
       id="path61" />
    <path
       style="fill:none;stroke:#ffffff;stroke-width:1.88976;stroke-linecap:butt;stroke-linejoin:miter;stroke-miterlimit:4;stroke-dasharray:none;stroke-opacity:1"
       d="m 92,64.582468 c 0,0 5.333333,0 3.555556,4 -5.040217,11.340487 -24.888889,8 -21.333334,4 7.111111,-8 17.777778,-8 17.777778,-8 z"
       id="path65"
       sodipodi:nodetypes="cscc" />
    <path
       style="fill:none;stroke:#ffffff;stroke-width:2.25619447;stroke-linecap:butt;stroke-linejoin:miter;stroke-miterlimit:4;stroke-dasharray:none;stroke-opacity:1"
       d="M 29.315673,21.820749 C 26.482892,22.758105 25.447648,35.62623 26,37 c 1.336146,3.323167 13.525076,3.284214 13.516408,0.516452 -0.0034,-1.082577 -7.381639,-16.628531 -10.200735,-15.695703 z"
       id="path69"
       sodipodi:nodetypes="ssss"
       inkscape:path-effect="#path-effect88"
       inkscape:original-d="M 29.315673,21.820749 C 26.482892,22.758105 25.447648,35.62623 26,37 c 1.336146,3.323167 13.525076,3.284214 13.516408,0.516452 -0.0034,-1.082577 -7.381639,-16.628531 -10.200735,-15.695703 z"
       transform="matrix(0.83758905,0,0,0.83758905,4.8035903,11.415644)" />
    <path
       id="mirror-path-effect88"
       d="M 29.315673,21.820749 C 26.482892,22.758105 25.447648,35.62623 26,37 c 1.336146,3.323167 13.525076,3.284214 13.516408,0.516452 -0.0034,-1.082577 -7.381639,-16.628531 -10.200735,-15.695703 z"
       style="fill:none;stroke:#ffffff;stroke-width:2.25619447;stroke-linecap:butt;stroke-linejoin:miter;stroke-miterlimit:4;stroke-dasharray:none;stroke-opacity:1"
       transform="matrix(-0.83758905,0,0,0.83758905,123.19641,11.415644)"
       inkscape:export-xdpi="1536"
       inkscape:export-ydpi="1536" />
  </g>
</svg>
